<svg width="32" height="27" viewBox="0 0 32 27" fill="none" xmlns="http://www.w3.org/2000/svg">
<path d="M14.4258 9.62704C14.7455 9.74215 14.8105 9.98941 14.9501 10.1674C15.8545 11.3743 17.0239 12.3575 18.3681 13.0411C19.7124 13.7248 21.1957 14.0907 22.7036 14.1108C23.8986 14.1663 25.0726 13.7831 26.0047 13.0333C26.9367 12.2834 27.5624 11.2186 27.7639 10.0395C27.971 8.90057 27.7747 7.7251 27.2089 6.71522C26.643 5.70534 25.743 4.92416 24.6636 4.506C23.5624 4.07556 22.3428 4.05756 21.2294 4.45533C20.116 4.8531 19.1838 5.63983 18.6047 6.67058C18.5333 6.78675 18.4544 6.89759 18.3105 7.11288C17.9706 5.91169 17.4367 4.7741 16.73 3.74503C16.4923 3.41571 16.7822 3.23026 16.9772 3.0331C17.8195 2.20875 18.8245 1.56932 19.9281 1.15572C21.0316 0.742119 22.2093 0.56346 23.3859 0.631176C24.5624 0.698892 25.7119 1.01149 26.7607 1.54897C27.8095 2.08645 28.7346 2.83697 29.4767 3.75249C30.5626 4.99696 31.2403 6.54476 31.4183 8.18677C31.5963 9.82878 31.2661 11.4859 30.4721 12.9341C29.7711 14.4539 28.6197 15.7212 27.174 16.5643C25.7282 17.4073 24.0582 17.7853 22.3903 17.647C20.3069 17.5293 18.3406 16.645 16.8702 15.1643C15.3997 13.6836 14.529 11.7113 14.4258 9.62704V9.62704Z" fill="black"/>
<path d="M19.4009 12.793C18.239 12.3646 17.1798 11.6976 16.2916 10.8348C15.4033 9.97205 14.7056 8.93273 14.2436 7.78383C13.8433 6.61266 13.064 5.60834 12.029 4.92969C11.2832 4.46777 10.428 4.21219 9.55109 4.18909C8.67413 4.16598 7.80676 4.37617 7.03767 4.79817C6.26857 5.22017 5.62534 5.83884 5.17373 6.59093C4.72212 7.34302 4.47833 8.20155 4.46729 9.07875C4.42466 11.6835 4.45663 14.2893 4.45557 16.8941C4.45557 17.7467 4.40867 17.7776 3.56138 17.557C2.86104 17.4005 2.22945 17.0232 1.75958 16.4808C1.28971 15.9385 1.00637 15.2595 0.95129 14.544C0.783859 12.2762 0.815604 9.99813 1.04615 7.73587C1.37157 5.74621 2.39452 3.93732 3.93187 2.63301C5.46921 1.3287 7.42058 0.61412 9.43668 0.617197C11.4528 0.620274 13.402 1.3408 14.9353 2.6498C16.4687 3.9588 17.4861 5.77081 17.8055 7.76145C17.8769 8.20504 17.9179 8.653 17.928 9.1022C17.9524 10.4709 18.4763 11.7835 19.4009 12.793V12.793Z" fill="black"/>
<path d="M14.5076 12.6406C15.1875 14.2208 16.2847 15.5862 17.6815 16.5904C17.7809 16.6739 17.8568 16.782 17.9017 16.9039C17.9466 17.0257 17.9588 17.1572 17.9373 17.2853C17.9373 20.0563 17.9245 22.8273 17.9437 25.5983C17.9437 26.1312 17.7806 26.257 17.2744 26.1482C16.4864 26.003 15.7716 25.5931 15.2483 24.9863C14.725 24.3794 14.4246 23.6121 14.3968 22.8113C14.3627 19.4936 14.3872 16.1758 14.3904 12.8591C14.3925 12.8271 14.4277 12.792 14.5076 12.6406Z" fill="black"/>
</svg>
